<svg id="Layer_1" data-name="Layer 1" xmlns="http://www.w3.org/2000/svg" viewBox="0 0 792.41 763.68"><defs><style>.cls-1{fill:#ff6584;}.cls-2{fill:#e6e6e6;}.cls-3{fill:#ccc;}.cls-4{fill:#cacaca;}.cls-5{fill:#3f3d56;}.cls-6{fill:#455a64;}.cls-7{fill:#fff;}.cls-8{fill:#a0616a;}.cls-9{fill:#2f2e41;}</style></defs><circle class="cls-1" cx="180.18" cy="49.43" r="49.43"/><path class="cls-2" d="M235.81,364.62a81.12,81.12,0,0,1-52.69-19.45c-4.89-4.19-10.11-11.48-15.5-21.66A49.55,49.55,0,0,1,166,280.74a56.3,56.3,0,0,1-9.38,7.7l-1.72,1.14-.1-2.05c-.06-1.34-.1-2.68-.1-4,0-7.61,5.76-15.34,3.11-22.38-11.2-29.67-46.71-59.16,4.76-105.07,4.76-4.25-1.6-12.74-1.6-19.17,0-63,68.43-157.46,114.24-114.22C302,48,357.7,65.89,383.72,101l.34,1-1,.41a61.09,61.09,0,0,1-16.26,4.33,77.2,77.2,0,0,0,18.14,1.52l.94,0,.23.91a115.07,115.07,0,0,1,3.41,27.77v1a50.64,50.64,0,0,0,16.71,37.73,81.2,81.2,0,0,1,26.51,59.95c0,13.35-9.08,30.87-16.69,43.23a24.44,24.44,0,0,1-17.94,11.49,23.86,23.86,0,0,1-19.27-6.22,79.07,79.07,0,0,0,13.92,19.71l1,1.07-1.29.75a81,81,0,0,1-40.83,11h-.84c-21.78,0-42.46,8.44-56.72,23.16A81.73,81.73,0,0,1,235.81,364.62Z" transform="translate(0 0)"/><path class="cls-3" d="M207.22,491.6a1.45,1.45,0,0,1-1.44-1.25c-.06-.44-6.13-44.19-.68-102.34,5-53.7,21.19-131,69.59-194.57A1.46,1.46,0,1,1,277,195.2c-48,63-64,139.76-69,193.08-5.41,57.81.6,101.22.67,101.66a1.48,1.48,0,0,1-1.24,1.65Z" transform="translate(0 0)"/><path class="cls-3" d="M251.42,281.44A1.46,1.46,0,0,1,250,280a1.44,1.44,0,0,1,.6-1.18,200.63,200.63,0,0,1,44.36-22.58c24.47-9,61.68-17.08,100-4.89a1.46,1.46,0,1,1-.88,2.78h0c-37.53-11.94-74.07-4-98.11,4.85a197.84,197.84,0,0,0-43.65,22.2A1.44,1.44,0,0,1,251.42,281.44Z" transform="translate(0 0)"/><path class="cls-3" d="M183.7,109.26A1.46,1.46,0,0,1,185,107.7a1.51,1.51,0,0,1,1.23.51A201.08,201.08,0,0,1,212,150.83c10.7,23.76,21.48,60.29,12.08,99.38a1.46,1.46,0,0,1-1.76,1.08,1.47,1.47,0,0,1-1.08-1.76c9.21-38.29-1.39-74.16-11.9-97.5A197.84,197.84,0,0,0,184,110.09,1.4,1.4,0,0,1,183.7,109.26Z" transform="translate(0 0)"/><path class="cls-4" d="M539.35,580.18c-100.27,0-177.23-5.28-230.64-26.44C178.6,502.2,134.49,480.8,134.06,480.59l.87-1.8c.43.21,44.5,21.59,174.51,73.09,77.12,30.55,204,27.82,379.62,24,33-.7,67-1.44,103.32-2l0,2c-36.28.58-70.36,1.31-103.31,2C634.47,579.11,584.54,580.18,539.35,580.18Z" transform="translate(0 0)"/><path class="cls-4" d="M116.2,711.39,114.79,710c48.58-48.58,67.3-67.15,71.27-71.08L42.91,535.5l1.17-1.62L189.14,638.66l-.84.83C188.14,639.65,171.56,656,116.2,711.39Z" transform="translate(0 0)"/><path class="cls-4" d="M188.28,763.68l-1.36-1.46C191.4,758,296.8,659.88,317.34,659.88h.07l472.09,4.81v2l-472.1-4.81h-.06C297.59,661.88,189.37,762.66,188.28,763.68Z" transform="translate(0 0)"/><rect class="cls-4" x="658.24" y="610.69" width="121.25" height="2"/><rect class="cls-4" x="431.24" y="610.69" width="121.25" height="2"/><path class="cls-5" d="M425.5,449.53h-70V431.84h26a6,6,0,0,0,6-6V406.69a6,6,0,0,0-6-6h-26v-6a8,8,0,0,0-16,0v6H243.4a6,6,0,0,0-3.46,1.1l-13.53,9.58a6,6,0,0,0-1.43,8.36,5.89,5.89,0,0,0,1.43,1.43l13.53,9.58a6,6,0,0,0,3.46,1.11h96.1v17.68h-70a6,6,0,0,0-6,6v19.16a6,6,0,0,0,6,6h70v66a8,8,0,0,0,16,0v-66h70a6,6,0,0,0,6-6V455.53a6,6,0,0,0-6-6Z" transform="translate(0 0)"/><path class="cls-6" d="M307.5,417.19h-50a3.5,3.5,0,0,1,0-7h50a3.5,3.5,0,0,1,0,7Z" transform="translate(0 0)"/><path class="cls-7" d="M369.5,468.19h-50a3.5,3.5,0,0,1,0-7h50a3.5,3.5,0,0,1,0,7Z" transform="translate(0 0)"/><path class="cls-5" d="M129.5,549.53V531.84h26a6,6,0,0,0,6-6V506.69a6,6,0,0,0-6-6h-26V495A8.2,8.2,0,0,0,122,486.7a8,8,0,0,0-8.52,7.46c0,.17,0,.35,0,.53v6L5.89,551A3.54,3.54,0,0,0,4,553.15c-.85,2.58-2.63,8.09-3.84,12.44a4.65,4.65,0,0,0,4.65,5.9c6.94-.21,11.5-.53,14.67-.62a4.72,4.72,0,0,0,1.77-.41l92.24-38.61V646.41a8.17,8.17,0,0,0,7.46,8.26,8,8,0,0,0,8.52-7.45c0-.18,0-.36,0-.53V549.53Z" transform="translate(0 0)"/><path class="cls-7" d="M87.74,532.15,42.11,552.61a3.5,3.5,0,0,1-2.86-6.39h0l45.63-20.45a3.5,3.5,0,0,1,2.86,6.38Z" transform="translate(0 0)"/><path class="cls-8" d="M480.52,366.73l-20.86,2.12a61.88,61.88,0,0,0,5.42,31.25l-6.25,58.28h.09a6.77,6.77,0,1,0,11.16-.81l13.9-52Z" transform="translate(0 0)"/><polygon class="cls-8" points="416.38 622.52 407.52 620.99 406.65 594.25 422.27 588.34 416.38 622.52"/><path class="cls-9" d="M416.4,626.31l-27.24-4.7.06-.34a10.76,10.76,0,0,1,12.43-8.78h0l5.63-2.92,8.63,5.38,2.38.41Z" transform="translate(0 0)"/><polygon class="cls-8" points="505.26 604 497.59 608.69 475.87 581.32 487.19 574.41 505.26 604"/><path class="cls-9" d="M507.73,606.33l-23.6,14.41-.18-.3a10.76,10.76,0,0,1,3.57-14.79h0l2.31-5.9,10-1.64,2.06-1.26Z" transform="translate(0 0)"/><path class="cls-9" d="M416.71,454.37l-5.31,20.2s-1.46,8.38-.7,9.13a10.08,10.08,0,0,1,1.84,6.22c-.34,2.05-3.78,1.21-2.06,4.26s-3.6,49.45-3.6,49.45l-4.76,57.06,17,2c2.44-1.43,2.8-3.06,1.36-4.85,0,0,3.49-4,1.57-5.59s1.55-2.22,1.74-6.21l11-39.18,3.63-8.76-.95-4.57,2.76-5.24,1.33-13.76,3.59,36.16,33.6,38.58L495.26,581l1-2.12a3.91,3.91,0,0,0-1.49-5h0l-5.62-5.22c.48-2.15-7.15-7.54-7.15-7.54l-12.78-24.07,7.93-67.39s12-16-3.89-30.48C466.71,433.28,416.71,454.37,416.71,454.37Z" transform="translate(0 0)"/><path class="cls-6" d="M470.57,433.34c2.82-4.19,9.59,1.83,7.33-5.69s-8-8.92-2.85-16.12l7.36-35.87h0a32.94,32.94,0,0,0-8.1-23.41l-10.6-12.13-1.6-4.31-18-.75-1.51,5.26c-5.39,6.72-14.21,15.34-13.95,28,.51,24.4-3.29,56.87-12.67,99.1,0,0,21-16.37,27.55-9.28s26.44,5.17,31.41.23a29.52,29.52,0,0,0,6.76-12S467.76,437.53,470.57,433.34Z" transform="translate(0 0)"/><path class="cls-9" d="M479.27,456.29l-41.15-11.6-27,13c12.09-22.5,19.45-59.95,17.12-91.77a36.7,36.7,0,0,1,3.84-19.59c3.71-7.15,9.52-12.19,18-11.64l11-1,7,4c10.13,10.61,14.12,26.44,12.54,41-1.74,16.09-3.91,35.65-4.34,37.39-.26,1,.55,2.83,1.41,4.74,1.45,3.22,3.25,7.22.75,9.73a7.23,7.23,0,0,0-2.46,5.33,6.52,6.52,0,0,0,2.44,4.64c3.19,2.76,1,14.88.87,15.39Z" transform="translate(0 0)"/><path class="cls-8" d="M458.28,376.62l-20.67-3.46a61.66,61.66,0,0,0-3,31.58l-21.39,54.57.09,0a6.77,6.77,0,1,0,11,2.16L451.39,415Z" transform="translate(0 0)"/><path class="cls-6" d="M434.12,387.69l24-5L462,365.27a13.54,13.54,0,0,0-27.07,0C432.55,375,433,377.77,434.12,387.69Z" transform="translate(0 0)"/><circle class="cls-8" cx="449.63" cy="308.5" r="18.8"/><path class="cls-9" d="M471.44,294.21c-1.46-2.62-7.28.73-9.08-1.66a19.66,19.66,0,0,0-5.36-5.28,11.75,11.75,0,0,0-11.54-.13,23,23,0,0,1-4.15,2.36c-1.52.49-3.5.12-4.16-1.33.47,1.27.93,2.53,1.39,3.8a5.41,5.41,0,0,1-7-2.22l-.24,3.94a1.58,1.58,0,0,0-1.73-1.1,2.85,2.85,0,0,0-1.93,2c-1.18,3.49,1.66,7.57,5.3,8.16,2.25.36,4.52-.37,6.78-.67s4.87,0,6.3,1.73,1.13,4.23,1.21,6.47,1.06,4.93,3.29,5.23c1.52.2,3-.86,4.51-.77,2.19.13,3.59,2.65,3.36,4.83s-1.61,4.05-2.93,5.8l6.56.52-.85.23c5.36-.26,9.49-5.45,10.13-10.77S474.06,298.89,471.44,294.21Z" transform="translate(0 0)"/></svg>